<svg xmlns="http://www.w3.org/2000/svg" viewBox="0 0 218.26 215.42"><defs><style>.cls-1{fill:#74dba1;}</style></defs><title>weed_symbol_03</title><g id="Layer_2" data-name="Layer 2"><g id="Layer_1-2" data-name="Layer 1"><path class="cls-1" d="M215.72,159.56c-.3-.06-30.27-6-59.66,2.87h0c4.94-5.92,9.77-12.25,14.24-18.7,23-33.21,23.9-69.29,23.91-69.65l0-2.47L192,72.72c-.37.19-36.41,18.39-59.42,50.81.51-8,.78-16.25.78-24.44,0-52.7-22.45-96.12-22.68-96.56L109.37,0,108,2.53c-.23.44-22.67,43.86-22.67,96.56,0,7.91.24,15.85.72,23.62-23-32-58.55-49.92-58.91-50.1L25,71.51,25,74c0,.36.91,36.44,23.91,69.65,4.59,6.62,9.56,13.13,14.66,19.19l-1.39-.43c-29.37-8.91-59.35-3-59.65-2.91L0,160l1.71,1.94a112.55,112.55,0,0,0,48.05,29.81,206.72,206.72,0,0,0,20.47,5.1,67,67,0,0,0-22.51,15l-1.81,2,2.64.5a76,76,0,0,0,12.88,1,74.66,74.66,0,0,0,21.37-3c12.73-3.86,22.92-9,26.73-13.42,3.8,4.39,14,9.57,26.71,13.44h0a74.42,74.42,0,0,0,21.43,3,75.24,75.24,0,0,0,12.82-1l2.64-.49-1.81-2a67,67,0,0,0-22.77-15.16c6.57-1.29,13.37-3,19.92-5A112.67,112.67,0,0,0,216.55,162l1.71-1.94ZM116.55,195.8a29.54,29.54,0,0,0,5.19-2.2,87.4,87.4,0,0,1,13.45,2.23C127.31,196.69,120.9,196.63,116.55,195.8Zm-18.94-2.22a29.57,29.57,0,0,0,4.85,2c-4.24,1-10.74,1.11-18.85.25A85.83,85.83,0,0,1,97.61,193.58Zm31.2-59c-1.66,17.88-4.5,32.43-7.9,42.6a62.78,62.78,0,0,0-6.2,4.18,67.68,67.68,0,0,0-3.51-13C114.92,158.5,121,146.76,128.81,134.55Zm-7.65,56c-1.12-.07-2.2-.1-3.22-.09a49.88,49.88,0,0,0,5.25-11.14,143.15,143.15,0,0,1,23.5-10.64C137,179.27,128.06,186.74,121.16,190.56ZM108,168.29A66.3,66.3,0,0,0,104.4,182a59.46,59.46,0,0,0-6.46-4.5c-3.51-10.37-6.45-25.4-8.11-44C98,146.14,104.23,158.24,108,168.29Zm-12.37,11.4a48.85,48.85,0,0,0,5.13,10.77c-.84,0-1.71,0-2.61.08-6.78-3.73-15.55-11-25.09-21.33A137.4,137.4,0,0,1,95.66,179.69Z"/></g></g></svg>