<svg xmlns="http://www.w3.org/2000/svg" viewBox="0 0 185 185"><defs><style>.cls-1{fill:#fff;}</style></defs><title>fb_icon</title><g id="Layer_2" data-name="Layer 2"><g id="Layer_1-2" data-name="Layer 1"><path class="cls-1" d="M92.5,185A92.5,92.5,0,1,1,185,92.5,92.61,92.61,0,0,1,92.5,185Zm0-180A87.5,87.5,0,1,0,180,92.5,87.6,87.6,0,0,0,92.5,5Z"/><path class="cls-1" d="M100.61,164.68H72.73c0-.12,0-.24,0-.37V99.88H49.52V74.63l.24,0H72.4l.34,0v-.55c0-6.68,0-13.37.08-20a34.18,34.18,0,0,1,2.05-11.27A28.07,28.07,0,0,1,89.41,26.43a38.55,38.55,0,0,1,16.23-3.76c3.17-.08,6.34,0,9.51.11,4.23.18,8.45.51,12.67.76.37,0,.51.12.51.52,0,7.22,0,14.43,0,21.65v.48h-.54c-4.79,0-9.59,0-14.39,0a20.64,20.64,0,0,0-5.9.8,8.57,8.57,0,0,0-6.35,6.62,20.44,20.44,0,0,0-.48,4.68q0,7.91,0,15.82v.54h26.7c-1.16,8.43-2.3,16.81-3.45,25.22H100.65v64.19A6,6,0,0,1,100.61,164.68Z"/></g></g></svg>