<svg xmlns="http://www.w3.org/2000/svg" viewBox="0 0 185 185"><defs><style>.cls-1{fill:#fff;}</style></defs><title>insta_icon</title><g id="Layer_2" data-name="Layer 2"><g id="Layer_1-2" data-name="Layer 1"><path class="cls-1" d="M92.5,185A92.5,92.5,0,1,1,185,92.5,92.61,92.61,0,0,1,92.5,185Zm0-180A87.5,87.5,0,1,0,180,92.5,87.6,87.6,0,0,0,92.5,5Z"/><path class="cls-1" d="M93.67,156c-9,0-18,.06-27,0C45.77,155.82,31.16,141.21,31,120.4c-.11-17.82-.05-35.64,0-53.46,0-13.28,5.14-24.21,16.75-30.82a39.52,39.52,0,0,1,17.6-4.9c18.8-.6,37.63-.44,56.45-.15,16.75.25,31.47,12,33.11,28.26.89,8.87.91,17.83,1,26.76.16,11.32.07,22.65,0,34-.05,21.12-14.81,35.84-35.84,35.93C111.33,156,102.5,156,93.67,156ZM144,93.5c0-8.33.32-16.67-.07-25-.77-16.36-8.82-24.74-25.47-25.39s-33.3-.45-49.94,0c-16.11.39-25,9.32-25.43,25.43-.4,16.64-.48,33.31,0,49.94.49,16.38,8.79,24.75,25.42,25.4s33.29.25,49.94,0a32.65,32.65,0,0,0,10.47-2c10.92-3.91,14.47-12.94,15-23.46C144.32,110.16,144,101.82,144,93.5Z"/><path class="cls-1" d="M93.39,126c-17.62.7-32.86-14.65-32.55-33.11a32.66,32.66,0,1,1,65.3,1.73C125.63,111.38,111.48,126.73,93.39,126ZM114,93.35c-1.24-11.83-8.75-20.12-20.52-20.1S73.35,81.57,73.24,93.4,82,114,93.76,113.76,113,105.13,114,93.35Z"/><path class="cls-1" d="M126.55,68A7.24,7.24,0,0,1,119,60.76c-.09-5.25,3-8.66,7.81-8.76A7.67,7.67,0,0,1,135,59.88C135.06,64.8,131.75,68,126.55,68Z"/></g></g></svg>