<svg xmlns="http://www.w3.org/2000/svg" viewBox="0 0 222.04 218.57"><defs><style>.cls-1{fill:#1c3627;}</style></defs><title>alt_symbl_01</title><g id="Layer_2" data-name="Layer 2"><g id="Layer_1-2" data-name="Layer 1"><path class="cls-1" d="M111.26,199.61c-16.24,0-25-50.68-25-98.36,0-52.95,22.55-96.59,22.78-97L111.26,0l2.21,4.22c.23.44,22.79,44.08,22.79,97C136.26,148.93,127.5,199.61,111.26,199.61Zm0-188.42c-5.62,12.42-20,48.27-20,90.06,0,57.84,11.65,93.36,20,93.36s20-35.52,20-93.36C131.26,59.43,116.88,23.6,111.26,11.19Z"/><path class="cls-1" d="M108.75,199.52c-14.28,0-39.93-26-58.76-53.17C26.82,112.89,25.93,77.63,25.9,76.15L25.83,72l3.69,1.84C31,74.62,67,92.79,90.14,126.16h0c19.42,28,30.39,54.75,27.29,66.47a8.81,8.81,0,0,1-4.62,6A9.35,9.35,0,0,1,108.75,199.52Zm-77.54-119c1,10.43,5.27,37.59,22.89,63,21.95,31.7,45,51.08,54.42,51.08a4.83,4.83,0,0,0,2.12-.43,4,4,0,0,0,2-2.8c2.28-8.63-6.12-32.81-26.57-62.34h0C68,103,41.19,86.16,31.21,80.48Z"/><path class="cls-1" d="M95.12,202.6c-12.07,0-28.33-3-43.76-7.74h0a113.75,113.75,0,0,1-48.51-30.1L0,161.52l4.23-.86c1.23-.26,30.53-6,60.14,2.93C89.59,171.24,109.15,182,113,190.44a7,7,0,0,1,.27,5.91C111.38,200.75,104.52,202.6,95.12,202.6ZM9.94,164.82c6.4,6.07,21.68,18.83,42.87,25.26h0c31.14,9.45,53.91,8.84,55.9,4.27.08-.17.3-.68-.23-1.82-2.75-6-19.29-16.18-45.56-24.15C41.32,161.82,19.32,163.58,9.94,164.82Z"/><path class="cls-1" d="M63.32,218.53a75.73,75.73,0,0,1-13.07-1l-4.4-.83,3-3.31a68.2,68.2,0,0,1,28.29-17.2c12.06-3.66,33.34-7.89,36.55-.53a4.86,4.86,0,0,1-.15,4.1c-2.82,6.11-17.16,12.32-28.58,15.79A75.32,75.32,0,0,1,63.32,218.53Zm-7-5.31c6.08.51,16.69.69,27.17-2.49h0c16.21-4.91,25-11,25.53-13.17-1.62-1.55-13.25-1.84-30.45,3.38A64.48,64.48,0,0,0,56.36,213.22Z"/><path class="cls-1" d="M159.56,218.57a75.52,75.52,0,0,1-21.72-3c-11.42-3.47-25.75-9.7-28.56-15.81a4.86,4.86,0,0,1-.15-4.1c3.22-7.36,24.49-3.12,36.55.55A68.06,68.06,0,0,1,174,213.41l3,3.31-4.4.83A76.65,76.65,0,0,1,159.56,218.57Zm-45.78-21c.64,2.21,9.37,8.25,25.52,13.17h0c10.47,3.18,21.08,3,27.17,2.5A64.41,64.41,0,0,0,144.22,201C127.17,195.78,115.59,196,113.78,197.59Z"/><path class="cls-1" d="M126.94,202.62c-9.44,0-16.31-1.87-18.23-6.27a7,7,0,0,1,.28-5.91c3.88-8.41,23.45-19.18,48.68-26.81,29.62-9,58.91-3.15,60.14-2.89l4.23.86-2.85,3.24a113.78,113.78,0,0,1-48.54,30.07C155.24,199.57,139,202.62,126.94,202.62ZM193.5,163.7a120.23,120.23,0,0,0-34.39,4.71c-26.28,8-42.82,18.16-45.58,24.13-.53,1.13-.31,1.64-.24,1.81,2,4.57,24.76,5.2,55.91-4.23,21.24-6.42,36.51-19.16,42.91-25.23A145.38,145.38,0,0,0,193.5,163.7Z"/><path class="cls-1" d="M114.22,199.64a9.22,9.22,0,0,1-4.06-.87,8.79,8.79,0,0,1-4.62-6c-3.1-11.71,7.87-38.43,27.29-66.47,23.11-33.36,59.1-51.53,60.62-52.29l3.69-1.83-.07,4.11c0,1.49-.91,36.75-24.09,70.2h0C154.15,173.66,128.5,199.64,114.22,199.64Zm77.54-119c-10,5.69-36.82,22.55-54.81,48.53-20.46,29.53-28.86,53.72-26.58,62.35a4,4,0,0,0,2,2.8c7.61,3.66,32.71-16.24,56.54-50.65C186.52,118.14,190.76,91,191.76,80.59Z"/><path class="cls-1" d="M111.22,197.63c-12.58,0-20.1-42.77-20.1-84.12,0-45.62,19-83.21,19.21-83.58l.89-1.74.89,1.74c.19.37,19.21,38,19.21,83.58C131.32,154.86,123.8,197.63,111.22,197.63Zm0-164.94c-3.76,8.06-18.1,41.4-18.1,80.82,0,49.12,9.36,82.12,18.1,82.12s18.1-33,18.1-82.12C129.32,74.09,115,40.75,111.22,32.69Z"/><path class="cls-1" d="M110.49,196.47c-11.4,0-33.41-21.07-50.08-44C40,124.41,38.21,93.27,38.2,93l-.09-1.67,1.51.71c.32.15,32.1,15.23,52.49,43.26,17.13,23.56,27.11,46,24.84,55.93a6.46,6.46,0,0,1-3.16,4.52A7,7,0,0,1,110.49,196.47ZM40.34,94.59C41,101.47,44.73,127.5,62,151.3c19.82,27.25,39.8,43.16,48.5,43.16a4.79,4.79,0,0,0,2.32-.52,4.46,4.46,0,0,0,2.15-3.2c2.12-9.22-8-31.55-24.51-54.31C73,112.38,47,98,40.34,94.59Z"/><path class="cls-1" d="M96.85,199.56c-10,0-23.35-2.27-35.91-5.9h0c-25-7.23-41-24.79-41.15-25l-1.13-1.26,1.65-.38c.26-.06,25.54-5.69,50.55,1.53,21.16,6.11,37.64,14.87,41,21.8a5.06,5.06,0,0,1,.33,4.21C110.79,198.07,104.93,199.56,96.85,199.56ZM61.5,191.74c26.62,7.68,46.75,7.29,48.84,2.1a3.13,3.13,0,0,0-.27-2.59c-3-6.25-19.76-15-39.76-20.74-20.74-6-41.67-3-47.78-1.86,4.16,4.15,18.44,17.17,39,23.09Z"/><path class="cls-1" d="M70.55,213.51a63.58,63.58,0,0,1-10.81-.84l-.86-.17.58-.65A57,57,0,0,1,82.75,197.4c12.87-4,27.27-5.6,29.07-1.38a2.66,2.66,0,0,1-.13,2.21c-1.77,3.82-11.33,9.07-23.24,12.76h0A61,61,0,0,1,70.55,213.51Zm-9.7-1.67c3.37.5,15.41,1.88,27.3-1.8h0c11.48-3.56,21-8.7,22.63-12.23a1.68,1.68,0,0,0,.12-1.4c-1.22-2.85-12.7-2.75-27.86,1.94A56.55,56.55,0,0,0,60.85,211.84Z"/><path class="cls-1" d="M152.21,213.54a61,61,0,0,1-18-2.53c-11.92-3.7-21.47-9-23.23-12.78a2.65,2.65,0,0,1-.13-2.22c1.81-4.21,16.2-2.59,29.07,1.41a57,57,0,0,1,23.27,14.47l.58.66-.86.16A63.52,63.52,0,0,1,152.21,213.54Zm-33.64-19c-3.8,0-6.23.68-6.75,1.91a1.71,1.71,0,0,0,.12,1.41c1.63,3.52,11.14,8.67,22.61,12.24,11.89,3.69,23.93,2.32,27.3,1.82a56.47,56.47,0,0,0-22.18-13.5C131,195.69,123.6,194.5,118.57,194.5Z"/><path class="cls-1" d="M125.47,199.41c-8.3,0-14.32-1.52-15.73-5.07a5,5,0,0,1,.36-4.21c3.41-6.91,20-15.56,41.14-21.54,25.06-7.07,50.31-1.28,50.56-1.22l1.66.39L202.31,169c-.15.18-16.22,17.64-41.31,24.72C148.59,197.23,135.4,199.41,125.47,199.41Zm52.94-32.33a98.88,98.88,0,0,0-26.62,3.43c-20,5.65-36.82,14.28-39.9,20.51a3.08,3.08,0,0,0-.29,2.58c2.06,5.2,22.19,5.72,48.86-1.8C181,186,195.39,173.07,199.58,169A117.86,117.86,0,0,0,178.41,167.08Z"/><path class="cls-1" d="M112.43,196.64a6.9,6.9,0,0,1-3.28-.75,6.42,6.42,0,0,1-3.16-4.51c-2.3-9.89,7.63-32.39,24.72-56C151,107.32,182.78,92.17,183.1,92l1.5-.71L184.52,93c0,.31-1.74,31.46-22.08,59.57h0C145.81,175.51,123.83,196.64,112.43,196.64Zm69.95-102c-6.61,3.42-32.61,17.86-50,42-16.5,22.8-26.54,45.15-24.4,54.36a4.5,4.5,0,0,0,2.16,3.2c6.91,3.67,28.93-12.64,50.73-42.75h0C178.07,127.54,181.7,101.49,182.38,94.61Z"/><ellipse class="cls-1" cx="111.74" cy="183.56" rx="2.5" ry="7.5"/><ellipse class="cls-1" cx="97.74" cy="197.06" rx="5.5" ry="2"/><circle class="cls-1" cx="105.24" cy="189.06" r="3"/><circle class="cls-1" cx="118.24" cy="188.06" r="2"/><ellipse class="cls-1" cx="125.24" cy="197.56" rx="9" ry="1.5"/></g></g></svg>