<svg xmlns="http://www.w3.org/2000/svg" viewBox="0 0 185 185"><defs><style>.cls-1{fill:#fff;}</style></defs><title>mm_icon</title><g id="Layer_2" data-name="Layer 2"><g id="Layer_1-2" data-name="Layer 1"><path class="cls-1" d="M92.5,185A92.5,92.5,0,1,1,185,92.5,92.61,92.61,0,0,1,92.5,185Zm0-180A87.5,87.5,0,1,0,180,92.5,87.6,87.6,0,0,0,92.5,5Z"/><path class="cls-1" d="M83,102.71c-3.61-11.67-6.28-22-10-31.9a85.44,85.44,0,0,0-10.53-20c-5.62-7.65-11.77-7.41-18.94-1.18C39,53.48,34.13,56.88,29.61,60.69a5.84,5.84,0,0,0-2.07,3.89c.23,22.23.63,44.46,1,66.69.06,3.74,1,6.27,5.63,6.21,4.78-.06,6-2.53,5.89-6.67-.27-10.27-.89-20.56-.53-30.82a146.62,146.62,0,0,1,3.08-26c.61-2.82,4.89-6.55,7.65-6.7s6.69,3.24,8.12,6.07a102.4,102.4,0,0,1,7.23,19.58c2.55,9.52,4.3,19.26,6.49,28.88,2.07,9.08,10.28,11.69,17.09,5.16a42.26,42.26,0,0,0,7.62-10.38c3.22-5.95,5.77-12.27,8.72-18.38a87.8,87.8,0,0,1,5-9.22c4.32-6.68,10.78-8.69,18.28-7.29,7,1.3,11,6.22,11.37,12.89.78,12.71.55,25.47,1.09,38.19.11,2.38,1.33,6.11,3,6.73,3.7,1.41,7.46-.05,8.87-4.36,7.18-21.91,6.07-43.1-6.86-62.68-6.57-10-17.11-12.87-27.58-7-6.82,3.8-12.82,9.51-18.24,15.25C94.34,87.06,89.39,94.46,83,102.71Z"/><path class="cls-1" d="M83,102.71c6.42-8.25,11.37-15.65,17.4-22,5.42-5.74,11.42-11.45,18.24-15.25,10.47-5.84,21-2.93,27.58,7,12.93,19.58,14,40.77,6.86,62.68-1.41,4.31-5.17,5.77-8.87,4.36-1.64-.62-2.86-4.35-3-6.73-.54-12.72-.31-25.48-1.09-38.19-.41-6.67-4.39-11.59-11.37-12.89-7.5-1.4-14,.61-18.28,7.29a87.8,87.8,0,0,0-5,9.22c-3,6.11-5.5,12.43-8.72,18.38A42.26,42.26,0,0,1,89.17,127c-6.81,6.53-15,3.92-17.09-5.16-2.19-9.62-3.94-19.36-6.49-28.88a102.4,102.4,0,0,0-7.23-19.58c-1.43-2.83-5.44-6.21-8.12-6.07s-7,3.88-7.65,6.7a146.62,146.62,0,0,0-3.08,26c-.36,10.26.26,20.55.53,30.82.1,4.14-1.11,6.61-5.89,6.67-4.62.06-5.57-2.47-5.63-6.21-.35-22.23-.75-44.46-1-66.69a5.84,5.84,0,0,1,2.07-3.89c4.52-3.81,9.38-7.21,13.84-11.08,7.17-6.23,13.32-6.47,18.94,1.18a85.44,85.44,0,0,1,10.53,20C76.69,80.71,79.36,91,83,102.71Z"/></g></g></svg>